<?xml version="1.0" encoding="iso-8859-1"?>
<!-- Generator: Adobe Illustrator 19.0.0, SVG Export Plug-In . SVG Version: 6.00 Build 0)  -->
<svg version="1.1" id="Capa_1" xmlns="http://www.w3.org/2000/svg" xmlns:xlink="http://www.w3.org/1999/xlink" x="0px" y="0px"
	 viewBox="0 0 409.6 409.6" style="enable-background:new 0 0 409.6 409.6;" xml:space="preserve">
<g>
	<g>
		<path d="M204.8,20.48c-11.315,0-20.48,9.165-20.48,20.48c0,11.315,9.165,20.48,20.48,20.48s20.48-9.165,20.48-20.48
			C225.28,29.645,216.115,20.48,204.8,20.48z"/>
	</g>
</g>
<g>
	<g>
		<rect x="40.96" y="348.16" width="327.68" height="40.96"/>
	</g>
</g>
<g>
	<g>
		<path d="M349.082,147.098c12.595,7.168,21.146,20.531,21.146,36.045c0,22.989-18.637,41.626-41.626,41.626
			c-15.462,0-28.518-8.704-35.686-21.248c8.192-2.662,14.234-10.138,14.234-19.2c0-11.315-9.165-20.48-20.48-20.48
			s-20.48,9.165-20.48,20.48c0,8.653,5.427,15.974,13.056,18.995c-4.096,1.382-8.448,2.202-13.056,2.202
			c-22.989,0-41.626-18.637-41.626-41.626c0-19.712,13.722-36.096,32.051-40.448L204.8,61.44l-51.866,61.952
			c18.381,4.352,32.051,20.736,32.051,40.448c0,22.989-18.637,41.626-41.626,41.626c-4.557,0-8.96-0.819-13.056-2.202
			c7.629-2.97,13.056-10.291,13.056-18.995c0-11.315-9.165-20.48-20.48-20.48c-11.315,0-20.48,9.165-20.48,20.48
			c0,9.114,6.042,16.538,14.234,19.2c-7.168,12.544-20.224,21.248-35.686,21.248c-22.989,0-41.626-18.637-41.626-41.626
			c0-15.514,8.602-28.877,21.146-36.045L0,122.88L40.96,307.2h327.68l40.96-184.32L349.082,147.098z M204.8,286.72l-41.062-41.062
			l41.062-41.062l41.062,41.062L204.8,286.72z"/>
	</g>
</g>
<g>
</g>
<g>
</g>
<g>
</g>
<g>
</g>
<g>
</g>
<g>
</g>
<g>
</g>
<g>
</g>
<g>
</g>
<g>
</g>
<g>
</g>
<g>
</g>
<g>
</g>
<g>
</g>
<g>
</g>
</svg>
