<svg id="Layer_1" enable-background="new 0 0 100 100" height="512" viewBox="0 0 100 100" width="512" xmlns="http://www.w3.org/2000/svg"><g><g><path d="m91.5 95.5h-35.5c14-3.2 22.1-13.9 17.6-29.2-.8-2.7-1.9-8.6 1.6-14.3.3-.5-.1-1.2-.8-1.1-2.2.6-5.9 2.7-7.4 10.6 0 0-.5-10.1-7.4-15 0 0-1.1-.9-2.2-2.8-3.6-6.2-1-11.9.4-14.4.3-.5-.2-1.1-.7-.9-5 1.7-20 8.9-21.1 32.7 0 0-3.5-.9-5.1-7.9-.1-.6-1-.7-1.3-.1-2.6 5.3-9.1 21.7 1.8 35 0 0 2.9 5.2 9.7 7.4h-33.3c-.6 0-1 .4-1 1s.4 1 1 1h83.6c.6 0 1-.4 1-1 .1-.5-.4-1-.9-1zm-52.8-4.1c-5.3-6.4-2-15 4-20.8 6.2-6.1 6.9-16.4 6.9-16.4 3.9 2.3 6.4 13.4 6.4 13.4 1.1 6-3.3 15.6-3.3 15.6 4.2-1 6.2-8.8 6.2-8.8 4.8 4.7 3 13.2 3 13.2-.8 4-3.4 6.3-6.1 7.6-.3.1-.5.2-.8.3h-10.5c-2.2-.9-4.2-2.3-5.8-4.1z"/><path d="m3.6 95.5h-1.6c-.6 0-1 .4-1 1s.4 1 1 1h1.6c.6 0 1-.4 1-1s-.4-1-1-1z"/><path d="m98 95.5h-2.6c-.6 0-1 .4-1 1s.4 1 1 1h2.6c.6 0 1-.4 1-1 0-.5-.5-1-1-1z"/><path d="m95.5 21.7c.7-2.2-.2-4.6-2-5.9.3-.5.6-1 .8-1.6.8-2.6-.7-5.4-3.4-6.2-2.6-.8-5.4.7-6.2 3.4-.4 1.4-.2 2.9.6 4.1-.4-.2-.7-.4-1.1-.5-2.8-.8-5.8.8-6.7 3.7-.6 2.1.1 4.3 1.7 5.6-.6.7-1 1.6-1.3 2.6-1.2 4.1 1.2 8.4 5.3 9.6s8.4-1.2 9.6-5.3c.6-2.1.3-4.2-.7-5.9 1.5-.6 2.9-1.9 3.4-3.6z"/><path d="m30.7 16.3c-.1.6-.2 1.3-.1 2 .5 3 3.2 5 6.2 4.5s5-3.2 4.5-6.2c-.2-1.5-1-2.7-2.2-3.6.9-.8 1.3-2 1.1-3.3-.2-1.6-1.5-2.8-3-3.1.1-.4.1-.8 0-1.2-.3-1.9-2.1-3.2-4-2.9s-3.2 2.1-2.9 4c.2 1 .8 1.9 1.6 2.4-.3 0-.6 0-.9 0-2.1.3-3.5 2.2-3.1 4.3.3 1.6 1.4 2.7 2.8 3.1z"/><path d="m34.4 35.4c0 2.9 1.1 5.5 2.9 7.4-2.8 1.9-4.8 5-5.2 8.6.4.4.7.8.8 1.4.4 1.8.9 3.1 1.5 4.1 2.7-21.8 17.4-28.6 22.1-30.2.3-.1.6-.1.9-.1.9 0 1.8.5 2.3 1.3s.5 1.8 0 2.6c-1.8 3-3.2 7.6-.4 12.4.7 1.3 1.5 2.1 1.7 2.2 1.7 1.2 3 2.7 4 4.2 4.6-1.3 7.9-5.5 7.9-10.5 0-3.3-1.5-6.3-3.8-8.3 2.3-2 3.8-5 3.8-8.3 0-6.1-4.9-11-11-11s-11 4.9-11 11c0 1.5.3 3 .9 4.3-1.8-1.3-4-2-6.3-2-6.2-.1-11.1 4.8-11.1 10.9z"/></g></g></svg>