<svg id="Layer_1" enable-background="new 0 0 34 34" viewBox="0 0 34 34" xmlns="http://www.w3.org/2000/svg"><g><path d="m11.5944519 14.4668112c.3300781 0 .6391602.1630859.8256836.4355469l2.1889648 3.2041025 4.5297852-7.649415c.1796875-.3037109.5043945-.4614258.8603516-.4902344.3510742 0 .6762695.184082.8569336.4848633l2.4135742 4.0151367h8.5025635c.1644897-.6760864.2504272-1.3720093.2218018-2.0793457-.1635742-4.0457153-3.0889893-7.1442261-6.6307373-7.8610229-2.9086304-.5886841-5.6428833.3343506-7.5224609 2.1296387-.4778442.4564209-1.2039795.4564209-1.6818237 0-1.8795776-1.7952881-4.6138306-2.7183228-7.522522-2.1296387-3.5535278.7191772-6.4677124 3.8309326-6.6306763 7.8610229-.0286255.7073364.057312 1.4032593.2218018 2.0793457z"/><path d="m22.7043152 16.4668121c-.3510742 0-.6762695-.1835938-.8569336-.484376l-1.8417969-3.0634766-4.4755859 7.5576181c-.1738281.2939453-.4863281.4785156-.828125.4892578-.0107422.0009766-.0214844.0009766-.0322266.0009766-.3295898 0-.6386719-.1621094-.8256836-.4355469l-2.7773438-4.0644531h-8.07135c.4186401.7696533.9537964 1.4818115 1.5822754 2.1070557-.100647-.1000977.1481934.1528931 10.3125 10.2092896 1.1688843 1.1564941 3.0509644 1.1564941 4.2199097 0-.1008911.0998535 8.067627-7.9761353 10.312439-10.2092896.628479-.6252441 1.1636353-1.3374023 1.5822754-2.1070557h-8.3003541z"/></g></svg>